<svg height="392pt" viewBox="0 0 392.43755 392" width="392pt" xmlns="http://www.w3.org/2000/svg"><path d="m389.5 375.617188-90.300781-90.296876c27.976562-31.300781 43.429687-71.820312 43.402343-113.800781 0-94.5-76.902343-171.300781-171.300781-171.300781-94.5 0-171.300781 76.898438-171.300781 171.300781 0 94.5 76.898438 171.300781 171.300781 171.300781 41.980469.027344 82.5-15.425781 113.800781-43.402343l90.296876 90.300781c1.878906 1.890625 4.441406 2.9375 7.101562 2.898438 2.652344-.007813 5.199219-1.046876 7.101562-2.898438 3.820313-3.9375 3.777344-10.214844-.101562-14.101562zm-369.601562-204.097657c0-83.402343 67.902343-151.300781 151.300781-151.300781 83.402343 0 151.300781 67.898438 151.300781 151.300781 0 83.398438-67.898438 151.300781-151.300781 151.300781-83.398438 0-151.300781-67.902343-151.300781-151.300781zm0 0" fill="#00efd1"/></svg>